<svg xmlns="http://www.w3.org/2000/svg" width="244" height="112" viewBox="0 0 244 112" role="img" aria-label="CPU 32.4 percent; average 40.4, minimum 31.1, maximum 68.2"><rect width="244" height="112" rx="10" fill="#161b22"/><text x="12" y="22" fill="#8b949e" font-family="system-ui,sans-serif" font-size="12">CPU</text><text x="232" y="22" text-anchor="end" fill="#f0f6fc" font-family="system-ui,sans-serif" font-size="18" font-weight="700">32.4%</text><path d="M12 76 H232" stroke="#30363d"/><polyline points="12.0,63.7 19.6,61.1 27.2,63.5 34.8,57.3 42.3,64.7 49.9,63.4 57.5,63.9 65.1,57.2 72.7,52.8 80.3,64.2 87.9,57.3 95.4,64.2 103.0,64.4 110.6,65.4 118.2,62.9 125.8,60.1 133.4,58.4 141.0,63.6 148.6,63.4 156.1,64.3 163.7,62.4 171.3,64.0 178.9,62.4 186.5,61.1 194.1,62.7 201.7,63.7 209.2,64.8 216.8,63.4 224.4,62.9 232.0,65.0" fill="none" stroke="#58a6ff" stroke-width="3" stroke-linecap="round" stroke-linejoin="round"/><text x="12" y="100" fill="#8b949e" font-family="system-ui,sans-serif" font-size="10">min 31.1%</text><text x="122" y="100" text-anchor="middle" fill="#8b949e" font-family="system-ui,sans-serif" font-size="10">avg 40.4%</text><text x="232" y="100" text-anchor="end" fill="#8b949e" font-family="system-ui,sans-serif" font-size="10">max 68.2%</text></svg>