<svg xmlns="http://www.w3.org/2000/svg" width="244" height="112" viewBox="0 0 244 112" role="img" aria-label="CPU 38.1 percent; average 36.5, minimum 24.1, maximum 57.9"><rect width="244" height="112" rx="10" fill="#161b22"/><text x="12" y="22" fill="#8b949e" font-family="system-ui,sans-serif" font-size="12">CPU</text><text x="232" y="22" text-anchor="end" fill="#f0f6fc" font-family="system-ui,sans-serif" font-size="18" font-weight="700">38.1%</text><path d="M12 76 H232" stroke="#30363d"/><polyline points="12.0,56.3 19.6,67.8 27.2,66.1 34.8,65.9 42.3,64.4 49.9,63.7 57.5,64.4 65.1,64.4 72.7,63.7 80.3,65.5 87.9,64.3 95.4,61.7 103.0,64.3 110.6,66.1 118.2,63.4 125.8,65.5 133.4,63.2 141.0,63.8 148.6,65.4 156.1,60.2 163.7,62.7 171.3,64.7 178.9,59.4 186.5,62.2 194.1,62.0 201.7,63.7 209.2,63.8 216.8,65.4 224.4,60.5 232.0,63.0" fill="none" stroke="#58a6ff" stroke-width="3" stroke-linecap="round" stroke-linejoin="round"/><text x="12" y="100" fill="#8b949e" font-family="system-ui,sans-serif" font-size="10">min 24.1%</text><text x="122" y="100" text-anchor="middle" fill="#8b949e" font-family="system-ui,sans-serif" font-size="10">avg 36.5%</text><text x="232" y="100" text-anchor="end" fill="#8b949e" font-family="system-ui,sans-serif" font-size="10">max 57.9%</text></svg>