<svg xmlns="http://www.w3.org/2000/svg" width="244" height="112" viewBox="0 0 244 112" role="img" aria-label="CPU 37.2 percent; average 40.7, minimum 31.1, maximum 68.2"><rect width="244" height="112" rx="10" fill="#161b22"/><text x="12" y="22" fill="#8b949e" font-family="system-ui,sans-serif" font-size="12">CPU</text><text x="232" y="22" text-anchor="end" fill="#f0f6fc" font-family="system-ui,sans-serif" font-size="18" font-weight="700">37.2%</text><path d="M12 76 H232" stroke="#30363d"/><polyline points="12.0,62.8 19.6,62.1 27.2,63.7 34.8,61.1 42.3,63.5 49.9,57.3 57.5,64.7 65.1,63.4 72.7,63.9 80.3,57.2 87.9,52.8 95.4,64.2 103.0,57.3 110.6,64.2 118.2,64.4 125.8,65.4 133.4,62.9 141.0,60.1 148.6,58.4 156.1,63.6 163.7,63.4 171.3,64.3 178.9,62.4 186.5,64.0 194.1,62.4 201.7,61.1 209.2,62.7 216.8,63.7 224.4,64.8 232.0,63.4" fill="none" stroke="#58a6ff" stroke-width="3" stroke-linecap="round" stroke-linejoin="round"/><text x="12" y="100" fill="#8b949e" font-family="system-ui,sans-serif" font-size="10">min 31.1%</text><text x="122" y="100" text-anchor="middle" fill="#8b949e" font-family="system-ui,sans-serif" font-size="10">avg 40.7%</text><text x="232" y="100" text-anchor="end" fill="#8b949e" font-family="system-ui,sans-serif" font-size="10">max 68.2%</text></svg>