<svg xmlns="http://www.w3.org/2000/svg" width="244" height="112" viewBox="0 0 244 112" role="img" aria-label="CPU 39.9 percent; average 41.1, minimum 31.1, maximum 68.2"><rect width="244" height="112" rx="10" fill="#161b22"/><text x="12" y="22" fill="#8b949e" font-family="system-ui,sans-serif" font-size="12">CPU</text><text x="232" y="22" text-anchor="end" fill="#f0f6fc" font-family="system-ui,sans-serif" font-size="18" font-weight="700">39.9%</text><path d="M12 76 H232" stroke="#30363d"/><polyline points="12.0,64.6 19.6,64.8 27.2,60.8 34.8,59.3 42.3,61.9 49.9,62.8 57.5,62.1 65.1,63.7 72.7,61.1 80.3,63.5 87.9,57.3 95.4,64.7 103.0,63.4 110.6,63.9 118.2,57.2 125.8,52.8 133.4,64.2 141.0,57.3 148.6,64.2 156.1,64.4 163.7,65.4 171.3,62.9 178.9,60.1 186.5,58.4 194.1,63.6 201.7,63.4 209.2,64.3 216.8,62.4 224.4,64.0 232.0,62.4" fill="none" stroke="#58a6ff" stroke-width="3" stroke-linecap="round" stroke-linejoin="round"/><text x="12" y="100" fill="#8b949e" font-family="system-ui,sans-serif" font-size="10">min 31.1%</text><text x="122" y="100" text-anchor="middle" fill="#8b949e" font-family="system-ui,sans-serif" font-size="10">avg 41.1%</text><text x="232" y="100" text-anchor="end" fill="#8b949e" font-family="system-ui,sans-serif" font-size="10">max 68.2%</text></svg>