<svg xmlns="http://www.w3.org/2000/svg" width="244" height="112" viewBox="0 0 244 112" role="img" aria-label="CPU 42.2 percent; average 38.5, minimum 24.1, maximum 57.9"><rect width="244" height="112" rx="10" fill="#161b22"/><text x="12" y="22" fill="#8b949e" font-family="system-ui,sans-serif" font-size="12">CPU</text><text x="232" y="22" text-anchor="end" fill="#f0f6fc" font-family="system-ui,sans-serif" font-size="18" font-weight="700">42.2%</text><path d="M12 76 H232" stroke="#30363d"/><polyline points="12.0,58.6 19.6,63.8 27.2,64.1 34.8,59.7 42.3,62.0 49.9,61.0 57.5,61.3 65.1,63.1 72.7,61.4 80.3,63.4 87.9,63.8 95.4,63.9 103.0,63.7 110.6,60.7 118.2,62.4 125.8,59.6 133.4,63.5 141.0,63.3 148.6,56.3 156.1,67.8 163.7,66.1 171.3,65.9 178.9,64.4 186.5,63.7 194.1,64.4 201.7,64.4 209.2,63.7 216.8,65.5 224.4,64.3 232.0,61.7" fill="none" stroke="#58a6ff" stroke-width="3" stroke-linecap="round" stroke-linejoin="round"/><text x="12" y="100" fill="#8b949e" font-family="system-ui,sans-serif" font-size="10">min 24.1%</text><text x="122" y="100" text-anchor="middle" fill="#8b949e" font-family="system-ui,sans-serif" font-size="10">avg 38.5%</text><text x="232" y="100" text-anchor="end" fill="#8b949e" font-family="system-ui,sans-serif" font-size="10">max 57.9%</text></svg>