<svg xmlns="http://www.w3.org/2000/svg" width="244" height="112" viewBox="0 0 244 112" role="img" aria-label="CPU 61.0 percent; average 52.3, minimum 23.1, maximum 72.5"><rect width="244" height="112" rx="10" fill="#161b22"/><text x="12" y="22" fill="#8b949e" font-family="system-ui,sans-serif" font-size="12">CPU</text><text x="232" y="22" text-anchor="end" fill="#f0f6fc" font-family="system-ui,sans-serif" font-size="18" font-weight="700">61.0%</text><path d="M12 76 H232" stroke="#30363d"/><polyline points="12.0,68.1 19.6,61.3 27.2,55.8 34.8,58.7 42.3,51.3 49.9,62.3 57.5,55.6 65.1,63.9 72.7,63.2 80.3,55.0 87.9,52.3 95.4,62.1 103.0,53.8 110.6,54.3 118.2,58.8 125.8,64.2 133.4,56.3 141.0,54.0 148.6,58.7 156.1,62.3 163.7,53.8 171.3,60.4 178.9,52.5 186.5,56.2 194.1,53.8 201.7,62.8 209.2,53.9 216.8,62.5 224.4,63.5 232.0,55.3" fill="none" stroke="#58a6ff" stroke-width="3" stroke-linecap="round" stroke-linejoin="round"/><text x="12" y="100" fill="#8b949e" font-family="system-ui,sans-serif" font-size="10">min 23.1%</text><text x="122" y="100" text-anchor="middle" fill="#8b949e" font-family="system-ui,sans-serif" font-size="10">avg 52.3%</text><text x="232" y="100" text-anchor="end" fill="#8b949e" font-family="system-ui,sans-serif" font-size="10">max 72.5%</text></svg>