<svg xmlns="http://www.w3.org/2000/svg" width="244" height="112" viewBox="0 0 244 112" role="img" aria-label="CPU 39.2 percent; average 36.6, minimum 24.1, maximum 57.9"><rect width="244" height="112" rx="10" fill="#161b22"/><text x="12" y="22" fill="#8b949e" font-family="system-ui,sans-serif" font-size="12">CPU</text><text x="232" y="22" text-anchor="end" fill="#f0f6fc" font-family="system-ui,sans-serif" font-size="18" font-weight="700">39.2%</text><path d="M12 76 H232" stroke="#30363d"/><polyline points="12.0,63.4 19.6,63.8 27.2,63.9 34.8,63.7 42.3,60.7 49.9,62.4 57.5,59.6 65.1,63.5 72.7,63.3 80.3,56.3 87.9,67.8 95.4,66.1 103.0,65.9 110.6,64.4 118.2,63.7 125.8,64.4 133.4,64.4 141.0,63.7 148.6,65.5 156.1,64.3 163.7,61.7 171.3,64.3 178.9,66.1 186.5,63.4 194.1,65.5 201.7,63.2 209.2,63.8 216.8,65.4 224.4,60.2 232.0,62.7" fill="none" stroke="#58a6ff" stroke-width="3" stroke-linecap="round" stroke-linejoin="round"/><text x="12" y="100" fill="#8b949e" font-family="system-ui,sans-serif" font-size="10">min 24.1%</text><text x="122" y="100" text-anchor="middle" fill="#8b949e" font-family="system-ui,sans-serif" font-size="10">avg 36.6%</text><text x="232" y="100" text-anchor="end" fill="#8b949e" font-family="system-ui,sans-serif" font-size="10">max 57.9%</text></svg>