<svg xmlns="http://www.w3.org/2000/svg" width="244" height="112" viewBox="0 0 244 112" role="img" aria-label="CPU 65.2 percent; average 52.6, minimum 23.1, maximum 72.5"><rect width="244" height="112" rx="10" fill="#161b22"/><text x="12" y="22" fill="#8b949e" font-family="system-ui,sans-serif" font-size="12">CPU</text><text x="232" y="22" text-anchor="end" fill="#f0f6fc" font-family="system-ui,sans-serif" font-size="18" font-weight="700">65.2%</text><path d="M12 76 H232" stroke="#30363d"/><polyline points="12.0,60.2 19.6,54.1 27.2,62.8 34.8,55.1 42.3,62.3 49.9,68.1 57.5,61.3 65.1,55.8 72.7,58.7 80.3,51.3 87.9,62.3 95.4,55.6 103.0,63.9 110.6,63.2 118.2,55.0 125.8,52.3 133.4,62.1 141.0,53.8 148.6,54.3 156.1,58.8 163.7,64.2 171.3,56.3 178.9,54.0 186.5,58.7 194.1,62.3 201.7,53.8 209.2,60.4 216.8,52.5 224.4,56.2 232.0,53.8" fill="none" stroke="#58a6ff" stroke-width="3" stroke-linecap="round" stroke-linejoin="round"/><text x="12" y="100" fill="#8b949e" font-family="system-ui,sans-serif" font-size="10">min 23.1%</text><text x="122" y="100" text-anchor="middle" fill="#8b949e" font-family="system-ui,sans-serif" font-size="10">avg 52.6%</text><text x="232" y="100" text-anchor="end" fill="#8b949e" font-family="system-ui,sans-serif" font-size="10">max 72.5%</text></svg>