<svg xmlns="http://www.w3.org/2000/svg" width="244" height="112" viewBox="0 0 244 112" role="img" aria-label="CPU 35.9 percent; average 41.7, minimum 31.1, maximum 69.2"><rect width="244" height="112" rx="10" fill="#161b22"/><text x="12" y="22" fill="#8b949e" font-family="system-ui,sans-serif" font-size="12">CPU</text><text x="232" y="22" text-anchor="end" fill="#f0f6fc" font-family="system-ui,sans-serif" font-size="18" font-weight="700">35.9%</text><path d="M12 76 H232" stroke="#30363d"/><polyline points="12.0,65.3 19.6,63.1 27.2,63.2 34.8,62.8 42.3,61.8 49.9,52.5 57.5,65.4 65.1,63.4 72.7,60.2 80.3,61.3 87.9,63.4 95.4,61.1 103.0,63.8 110.6,65.2 118.2,61.5 125.8,62.5 133.4,64.2 141.0,61.1 148.6,60.6 156.1,58.4 163.7,59.7 171.3,63.1 178.9,60.9 186.5,61.7 194.1,63.0 201.7,63.5 209.2,61.0 216.8,58.9 224.4,58.6 232.0,63.8" fill="none" stroke="#58a6ff" stroke-width="3" stroke-linecap="round" stroke-linejoin="round"/><text x="12" y="100" fill="#8b949e" font-family="system-ui,sans-serif" font-size="10">min 31.1%</text><text x="122" y="100" text-anchor="middle" fill="#8b949e" font-family="system-ui,sans-serif" font-size="10">avg 41.7%</text><text x="232" y="100" text-anchor="end" fill="#8b949e" font-family="system-ui,sans-serif" font-size="10">max 69.2%</text></svg>