<svg xmlns="http://www.w3.org/2000/svg" width="244" height="112" viewBox="0 0 244 112" role="img" aria-label="CPU 41.3 percent; average 42.3, minimum 31.1, maximum 69.2"><rect width="244" height="112" rx="10" fill="#161b22"/><text x="12" y="22" fill="#8b949e" font-family="system-ui,sans-serif" font-size="12">CPU</text><text x="232" y="22" text-anchor="end" fill="#f0f6fc" font-family="system-ui,sans-serif" font-size="18" font-weight="700">41.3%</text><path d="M12 76 H232" stroke="#30363d"/><polyline points="12.0,62.8 19.6,61.8 27.2,52.5 34.8,65.4 42.3,63.4 49.9,60.2 57.5,61.3 65.1,63.4 72.7,61.1 80.3,63.8 87.9,65.2 95.4,61.5 103.0,62.5 110.6,64.2 118.2,61.1 125.8,60.6 133.4,58.4 141.0,59.7 148.6,63.1 156.1,60.9 163.7,61.7 171.3,63.0 178.9,63.5 186.5,61.0 194.1,58.9 201.7,58.6 209.2,63.8 216.8,64.1 224.4,59.7 232.0,62.0" fill="none" stroke="#58a6ff" stroke-width="3" stroke-linecap="round" stroke-linejoin="round"/><text x="12" y="100" fill="#8b949e" font-family="system-ui,sans-serif" font-size="10">min 31.1%</text><text x="122" y="100" text-anchor="middle" fill="#8b949e" font-family="system-ui,sans-serif" font-size="10">avg 42.3%</text><text x="232" y="100" text-anchor="end" fill="#8b949e" font-family="system-ui,sans-serif" font-size="10">max 69.2%</text></svg>