<svg xmlns="http://www.w3.org/2000/svg" width="244" height="112" viewBox="0 0 244 112" role="img" aria-label="Memory 28.9 percent; average 28.9, minimum 28.2, maximum 33.3"><rect width="244" height="112" rx="10" fill="#161b22"/><text x="12" y="22" fill="#8b949e" font-family="system-ui,sans-serif" font-size="12">Memory</text><text x="232" y="22" text-anchor="end" fill="#f0f6fc" font-family="system-ui,sans-serif" font-size="18" font-weight="700">28.9%</text><path d="M12 76 H232" stroke="#30363d"/><polyline points="12.0,66.3 19.6,66.3 27.2,66.3 34.8,66.3 42.3,64.7 49.9,66.3 57.5,66.3 65.1,66.2 72.7,66.3 80.3,66.3 87.9,65.9 95.4,66.3 103.0,66.3 110.6,66.2 118.2,66.4 125.8,66.3 133.4,66.2 141.0,66.2 148.6,66.2 156.1,66.1 163.7,66.1 171.3,66.2 178.9,66.1 186.5,66.1 194.1,66.2 201.7,66.1 209.2,66.0 216.8,66.2 224.4,66.0 232.0,66.2" fill="none" stroke="#a371f7" stroke-width="3" stroke-linecap="round" stroke-linejoin="round"/><text x="12" y="100" fill="#8b949e" font-family="system-ui,sans-serif" font-size="10">min 28.2%</text><text x="122" y="100" text-anchor="middle" fill="#8b949e" font-family="system-ui,sans-serif" font-size="10">avg 28.9%</text><text x="232" y="100" text-anchor="end" fill="#8b949e" font-family="system-ui,sans-serif" font-size="10">max 33.3%</text></svg>