<svg xmlns="http://www.w3.org/2000/svg" width="244" height="112" viewBox="0 0 244 112" role="img" aria-label="Memory 13.4 percent; average 22.8, minimum 11.1, maximum 56.4"><rect width="244" height="112" rx="10" fill="#161b22"/><text x="12" y="22" fill="#8b949e" font-family="system-ui,sans-serif" font-size="12">Memory</text><text x="232" y="22" text-anchor="end" fill="#f0f6fc" font-family="system-ui,sans-serif" font-size="18" font-weight="700">13.4%</text><path d="M12 76 H232" stroke="#30363d"/><polyline points="12.0,66.2 19.6,66.2 27.2,66.1 34.8,66.1 42.3,66.1 49.9,66.1 57.5,66.1 65.1,66.1 72.7,66.0 80.3,66.1 87.9,66.0 95.4,65.9 103.0,65.9 110.6,65.9 118.2,65.9 125.8,56.8 133.4,68.6 141.0,72.2 148.6,72.0 156.1,72.0 163.7,72.0 171.3,71.6 178.9,71.5 186.5,71.5 194.1,71.5 201.7,71.5 209.2,71.4 216.8,71.4 224.4,71.4 232.0,71.4" fill="none" stroke="#a371f7" stroke-width="3" stroke-linecap="round" stroke-linejoin="round"/><text x="12" y="100" fill="#8b949e" font-family="system-ui,sans-serif" font-size="10">min 11.1%</text><text x="122" y="100" text-anchor="middle" fill="#8b949e" font-family="system-ui,sans-serif" font-size="10">avg 22.8%</text><text x="232" y="100" text-anchor="end" fill="#8b949e" font-family="system-ui,sans-serif" font-size="10">max 56.4%</text></svg>