<svg xmlns="http://www.w3.org/2000/svg" width="244" height="112" viewBox="0 0 244 112" role="img" aria-label="Memory 29.0 percent; average 28.5, minimum 27.7, maximum 29.8"><rect width="244" height="112" rx="10" fill="#161b22"/><text x="12" y="22" fill="#8b949e" font-family="system-ui,sans-serif" font-size="12">Memory</text><text x="232" y="22" text-anchor="end" fill="#f0f6fc" font-family="system-ui,sans-serif" font-size="18" font-weight="700">29.0%</text><path d="M12 76 H232" stroke="#30363d"/><polyline points="12.0,66.6 19.6,66.5 27.2,66.5 34.8,66.5 42.3,65.9 49.9,66.4 57.5,66.4 65.1,66.3 72.7,66.4 80.3,66.3 87.9,66.0 95.4,66.2 103.0,66.4 110.6,66.3 118.2,66.3 125.8,66.3 133.4,66.2 141.0,66.3 148.6,66.3 156.1,66.4 163.7,66.3 171.3,66.3 178.9,66.2 186.5,66.3 194.1,66.3 201.7,66.3 209.2,66.2 216.8,66.1 224.4,66.0 232.0,66.1" fill="none" stroke="#a371f7" stroke-width="3" stroke-linecap="round" stroke-linejoin="round"/><text x="12" y="100" fill="#8b949e" font-family="system-ui,sans-serif" font-size="10">min 27.7%</text><text x="122" y="100" text-anchor="middle" fill="#8b949e" font-family="system-ui,sans-serif" font-size="10">avg 28.5%</text><text x="232" y="100" text-anchor="end" fill="#8b949e" font-family="system-ui,sans-serif" font-size="10">max 29.8%</text></svg>