<svg xmlns="http://www.w3.org/2000/svg" width="244" height="112" viewBox="0 0 244 112" role="img" aria-label="Storage 60.0 percent; average 61.7, minimum 60.0, maximum 75.1"><rect width="244" height="112" rx="10" fill="#161b22"/><text x="12" y="22" fill="#8b949e" font-family="system-ui,sans-serif" font-size="12">Storage</text><text x="232" y="22" text-anchor="end" fill="#f0f6fc" font-family="system-ui,sans-serif" font-size="18" font-weight="700">60.0%</text><path d="M12 76 H232" stroke="#30363d"/><polyline points="12.0,50.5 20.8,50.5 29.6,50.5 38.4,55.6 47.2,55.6 56.0,55.6 64.8,55.6 73.6,55.6 82.4,55.6 91.2,55.6 100.0,55.6 108.8,55.6 117.6,55.6 126.4,55.6 135.2,55.6 144.0,55.6 152.8,55.6 161.6,55.6 170.4,55.6 179.2,55.6 188.0,55.6 196.8,55.6 205.6,55.6 214.4,55.6 223.2,55.6 232.0,55.6" fill="none" stroke="#3fb950" stroke-width="3" stroke-linecap="round" stroke-linejoin="round"/><text x="12" y="100" fill="#8b949e" font-family="system-ui,sans-serif" font-size="10">min 60.0%</text><text x="122" y="100" text-anchor="middle" fill="#8b949e" font-family="system-ui,sans-serif" font-size="10">avg 61.7%</text><text x="232" y="100" text-anchor="end" fill="#8b949e" font-family="system-ui,sans-serif" font-size="10">max 75.1%</text></svg>